# xmcd
#
# Track frame offsets: 
#        150
#        16922
#        34333
#        47705
#        58696
#        72250
#        92554
#        108220
#        121141
#        138672
#        158703
#        173835
#        198085
#        216160
#        239654
#
# Disc length: 3391 seconds
#
# Revision: 0
# Processed by: cddbd v1.5.2PL0 Copyright (c) Steve Scherf et al.
# Submitted via: ExactAudioCopy v0.99pb4
#
DISCID=ce0d3d0f
DTITLE=Blechschaden - Up Frack Prämie
DYEAR=2010
DGENRE=Folk
TTITLE0=Take Mission
TTITLE1=Pachelbel Kanonlandler
TTITLE2=Tuxedo Junction
TTITLE3=Zwiefacher
TTITLE4=We Will Rock You
TTITLE5=Annie Laurie
TTITLE6=Tango für Elise
TTITLE7=Posaunisten Träume
TTITLE8=Ich Gehör Nur Mir
TTITLE9=Caribbean Nights
TTITLE10=Alphorn Dialog
TTITLE11=Your Song
TTITLE12=La Cucaracha
TTITLE13=Macarthur Park
TTITLE14=Ye Banks and Braes
EXTD=
EXTT0=
EXTT1=
EXTT2=
EXTT3=
EXTT4=
EXTT5=
EXTT6=
EXTT7=
EXTT8=
EXTT9=
EXTT10=
EXTT11=
EXTT12=
EXTT13=
EXTT14=
PLAYORDER=
